<svg width="10" height="16" viewBox="0 0 10 16" fill="none" xmlns="http://www.w3.org/2000/svg">
<path d="M9.14063 7.64062C9.24479 7.74479 9.29688 7.86458 9.29688 8C9.29688 8.13542 9.24479 8.25521 9.14063 8.35938L1.85938 15.6406C1.75521 15.7448 1.63542 15.7969 1.5 15.7969C1.36458 15.7969 1.24479 15.7448 1.14063 15.6406L0.359375 14.8594C0.255208 14.7552 0.203125 14.6354 0.203125 14.5C0.203125 14.3646 0.255208 14.2448 0.359375 14.1406L6.5 8L0.359375 1.85937C0.255208 1.75521 0.203125 1.63542 0.203125 1.5C0.203125 1.36458 0.255208 1.24479 0.359375 1.14062L1.14063 0.359374C1.24479 0.255207 1.36458 0.203124 1.5 0.203124C1.63542 0.203124 1.75521 0.255207 1.85938 0.359374L9.14063 7.64062Z" fill="white"/>
</svg>
