<svg width="80" height="78" viewBox="0 0 80 78" fill="none" xmlns="http://www.w3.org/2000/svg">
<path d="M51.7266 68.165C52.7362 67.0719 53.1701 65.7315 53.1701 64.2496C53.1701 62.7634 52.7447 61.4139 51.7266 60.3214C50.7348 59.2557 49.4818 58.7644 48.0383 58.7644C46.5905 58.7644 45.324 59.2423 44.3237 60.3037C43.3007 61.3919 42.8802 62.7372 42.8802 64.2234C42.8802 65.7187 43.3007 67.081 44.328 68.1784C45.324 69.2441 46.5771 69.7354 48.0249 69.7354C49.4769 69.7354 50.7342 69.2398 51.7266 68.165ZM46.4044 66.3999C45.9216 65.7846 45.7757 65.0016 45.7757 64.2362C45.7757 63.4757 45.935 62.7231 46.4221 62.1262C46.8383 61.6129 47.3651 61.3565 48.0249 61.3565C48.6889 61.3565 49.2291 61.6001 49.6411 62.1262C50.1239 62.7365 50.274 63.5019 50.274 64.263C50.274 65.0241 50.1147 65.7846 49.6368 66.3907C49.2205 66.9168 48.6889 67.1695 48.0249 67.1695C47.3565 67.1695 46.8206 66.926 46.4044 66.3999Z" fill="white"/>
<path d="M41.3348 58.9414H36.137C35.783 58.9414 35.473 59.0781 35.2294 59.3351C34.9902 59.5871 34.862 59.8923 34.862 60.242C34.862 60.6089 34.9902 60.9275 35.2514 61.1838C35.4949 61.4139 35.7873 61.5512 36.1236 61.5512H37.337V68.2578C37.337 68.6423 37.4786 68.9786 37.7484 69.2484L37.7532 69.2575L37.7618 69.2618C38.045 69.5139 38.3819 69.6689 38.7628 69.6689C39.1387 69.6689 39.4665 69.5182 39.7277 69.2484C39.9932 68.9743 40.1348 68.6423 40.1348 68.2578V61.5647H41.3348C41.6845 61.5647 41.9946 61.4365 42.2424 61.1838C42.4902 60.9317 42.6232 60.6223 42.6232 60.2683C42.6232 59.91 42.4951 59.5914 42.2467 59.3351C41.9989 59.0781 41.6888 58.9414 41.3348 58.9414Z" fill="white"/>
<path d="M31.2664 66.7667C31.0412 66.9394 30.7665 67.0011 30.4827 67.0011C30.0445 67.0011 29.5354 66.8467 29.1283 66.6959C28.8403 66.5946 28.3532 66.4176 28.0523 66.4176C27.6977 66.4176 27.3882 66.55 27.1532 66.8155C26.9097 67.0853 26.8035 67.4125 26.8035 67.7707V67.8415C26.8035 68.5227 27.3394 68.9518 27.9015 69.2215C28.6633 69.5847 29.5397 69.6952 30.3722 69.6952C31.4526 69.6952 32.5018 69.4339 33.33 68.6997C34.1045 68.01 34.4677 67.125 34.4677 66.0856C34.4677 64.9881 34.0429 64.0946 33.1036 63.5196C32.5237 63.1479 31.7315 62.9001 31.0717 62.7103C30.8062 62.6395 30.5407 62.5596 30.2837 62.4625C30.1952 62.4314 30.0268 62.3697 29.9468 62.3118C29.8632 62.241 29.7655 62.1439 29.7655 62.0243C29.7655 61.8564 29.8498 61.7411 29.978 61.644C30.1641 61.5067 30.3808 61.4536 30.6066 61.4536C30.8233 61.4536 31.1028 61.5244 31.3103 61.5824L31.7046 61.7191C31.9482 61.7991 32.2717 61.901 32.528 61.901C32.8869 61.901 33.1921 61.7594 33.4313 61.4939C33.6706 61.2327 33.7902 60.914 33.7902 60.56C33.7902 59.9454 33.3697 59.5249 32.86 59.2466C32.2271 58.906 31.4965 58.7906 30.7885 58.7906C29.7478 58.7906 28.778 59.0647 27.9766 59.7464C27.224 60.3965 26.8432 61.2327 26.8432 62.2324C26.8432 63.1833 27.1935 63.9756 27.9943 64.4974C28.2336 64.6567 28.5259 64.7806 28.7957 64.8868C29.19 65.037 29.5971 65.1651 30.0048 65.2848C30.3808 65.3952 30.8239 65.5234 31.1822 65.687C31.2798 65.7316 31.4123 65.8066 31.4703 65.9037C31.5234 66.0013 31.5453 66.1161 31.5453 66.2265C31.5453 66.4573 31.4526 66.6251 31.2664 66.7667Z" fill="white"/>
<path d="M66.7932 69.2527C67.0679 69.5182 67.3957 69.6689 67.7759 69.6689C68.1659 69.6689 68.5065 69.5182 68.772 69.2307C69.0332 68.9518 69.1754 68.6161 69.1754 68.2309V64.6476L71.7743 61.091C71.9599 60.839 72.0484 60.5515 72.0484 60.2414C72.0484 59.852 71.8982 59.5163 71.615 59.2508C71.3446 58.9896 71.0126 58.8437 70.636 58.8437C70.1538 58.8437 69.7638 59.0561 69.494 59.4541L67.7759 61.9181L66.0718 59.4541C65.8057 59.0512 65.412 58.8437 64.9292 58.8437C64.5349 58.8437 64.1809 58.981 63.902 59.2643C63.6365 59.5298 63.4857 59.8612 63.4857 60.2414C63.4857 60.5558 63.6054 60.8432 63.7915 61.091L66.3636 64.6476V68.2309C66.3636 68.6289 66.5058 68.9786 66.7932 69.2527Z" fill="white"/>
<path d="M62.5823 62.3563C62.5823 61.3828 62.2418 60.5472 61.5112 59.8966C60.7678 59.2331 59.851 58.9591 58.8592 58.9591H56.2914C55.8972 58.9591 55.5517 59.0958 55.277 59.3747C54.9938 59.6579 54.8608 60.0119 54.8608 60.4099V68.2309C54.8608 68.6246 54.9981 68.9701 55.277 69.2484L55.2819 69.2576L55.2862 69.2618C55.5737 69.5139 55.9057 69.6689 56.2908 69.6689C56.6674 69.6689 57.0037 69.5365 57.2741 69.2661C57.5439 68.9921 57.6769 68.6557 57.6769 68.2706V66.0105L60.1788 69.0891C60.462 69.4388 60.8251 69.6689 61.2811 69.6689C61.6619 69.6689 62.0025 69.5316 62.2863 69.271L62.2949 69.2661L62.2991 69.2576C62.5561 68.9743 62.7068 68.6423 62.7068 68.2578C62.7068 67.9081 62.5781 67.6029 62.3437 67.3423L60.4577 65.2671C60.7763 65.1786 61.0998 65.0596 61.3519 64.8868C62.2198 64.2893 62.5823 63.3957 62.5823 62.3563ZM59.5141 63.024C59.3328 63.1968 59.1247 63.2853 58.872 63.2853H57.6904V61.5824H58.8458C59.0978 61.5824 59.3237 61.6483 59.5056 61.8345L59.5098 61.8387L59.519 61.843C59.6911 61.998 59.7845 62.1793 59.7845 62.4137C59.7845 62.6572 59.6911 62.8519 59.5141 63.024Z" fill="white"/>
<path d="M17.9358 69.271C18.2055 69.545 18.5418 69.6824 18.927 69.6824C19.317 69.6824 19.6533 69.5365 19.9237 69.2533C20.1849 68.9786 20.3265 68.6515 20.3265 68.2712V60.2683C20.3265 59.8746 20.1892 59.5298 19.9145 59.2466C19.6447 58.9768 19.3127 58.8309 18.9276 58.8309C18.5424 58.8309 18.2104 58.9945 17.9443 59.2728C17.6831 59.5517 17.528 59.8838 17.528 60.2683V62.8251H13.8574V60.2683C13.8574 59.8789 13.7207 59.5383 13.4546 59.26C13.1891 58.9811 12.857 58.8309 12.4719 58.8309C12.0819 58.8309 11.7456 58.9902 11.4752 59.2728C11.2097 59.5517 11.0589 59.8838 11.0589 60.2683V68.2712C11.0589 68.66 11.1963 69.0006 11.4752 69.2753C11.7498 69.545 12.0862 69.6824 12.4719 69.6824C12.857 69.6824 13.1933 69.545 13.4588 69.271C13.7292 68.9969 13.8574 68.6564 13.8574 68.2712V65.4355H17.528V68.2706C17.528 68.66 17.6654 68.9963 17.9358 69.271Z" fill="white"/>
<path d="M22.7258 59.2728C22.4646 59.5517 22.3095 59.8838 22.3095 60.2683V68.2578C22.3095 68.6423 22.4469 68.9835 22.7172 69.2575C22.987 69.5316 23.3282 69.6689 23.7091 69.6689C24.0942 69.6689 24.4305 69.5316 24.7009 69.2575C24.9707 68.9878 25.108 68.6557 25.108 68.2706V60.2683C25.108 59.8789 24.9749 59.5383 24.7052 59.2594C24.4397 58.981 24.1076 58.8303 23.7219 58.8303C23.3325 58.8303 22.9962 58.9902 22.7258 59.2728Z" fill="white"/>
<path d="M78.4246 23.9573H19.7814L77.3553 12.8269C77.7654 12.7476 78.128 12.5083 78.3618 12.1623C78.5961 11.8156 78.6828 11.3908 78.6029 10.98L76.8633 1.99564C76.6973 1.14115 75.8709 0.582067 75.017 0.748083L58.518 3.93717C58.4838 3.94266 58.449 3.94877 58.4149 3.9567L8.53999 13.5972C8.5345 13.5984 8.52961 13.599 8.52412 13.6003L1.2768 15.001C0.866038 15.081 0.5041 15.3196 0.270335 15.6663C0.0359601 16.0124 -0.0507099 16.4378 0.0286359 16.8479L1.74006 25.684V75.7072C1.74006 76.5776 2.44563 77.2831 3.31599 77.2831H33.4008C34.2712 77.2831 34.9768 76.5776 34.9768 75.7072C34.9768 74.8374 34.2712 74.1319 33.4008 74.1319H4.89131V36.2614H11.8865L11.8908 36.262L11.8933 36.2614H24.5935L24.5977 36.262L24.6002 36.2614H37.3052L37.3089 36.262L37.312 36.2614H50.0122L50.0158 36.262L50.0189 36.2614H62.7191L62.7227 36.262L62.7258 36.2614H76.8487V74.1319H47.5866C46.7163 74.1319 46.0107 74.8374 46.0107 75.7072C46.0107 76.5776 46.7163 77.2831 47.5866 77.2831H78.4246C79.2944 77.2831 79.9999 76.5776 79.9999 75.7072V25.5332C79.9999 24.6629 79.2944 23.9573 78.4246 23.9573ZM53.1707 33.1101L57.6763 27.1086H66.4422L61.9366 33.1101H53.1707ZM40.4626 33.1101L44.9652 27.1086H53.7353L49.2297 33.1101H40.4626ZM27.752 33.1101L32.2576 27.1086H41.0253L36.5228 33.1101H27.752ZM15.0451 33.1101L19.5507 27.1086H28.3172L23.8116 33.1101H15.0451ZM4.89131 25.5332C4.89131 24.6458 5.61457 23.9237 6.50386 23.9237C7.39253 23.9237 8.11579 24.6458 8.11579 25.5332C8.11579 26.4207 7.39253 27.1427 6.50386 27.1427C5.61457 27.1427 4.89131 26.4207 4.89131 25.5332ZM20.9466 14.409L27.2485 19.304L18.8818 20.9214L12.583 16.0258L20.9466 14.409ZM33.4228 11.9975L39.7241 16.8919L31.3623 18.5087L25.0604 13.6137L33.4228 11.9975ZM45.899 9.58597L52.1997 14.4804L43.8378 16.0966L37.5366 11.2028L45.899 9.58597ZM58.3795 7.17386L64.6765 12.0683L56.3134 13.6851L50.0128 8.79069L58.3795 7.17386ZM75.2093 10.0321L68.789 11.273L62.492 6.37858L74.0686 4.14103L75.2093 10.0321ZM8.47041 16.8205L14.7698 21.7167L10.2447 22.5913C9.3719 21.4848 8.01997 20.7725 6.50386 20.7725C5.63655 20.7725 4.82417 21.0063 4.12287 21.4121L3.4228 17.7964L8.47041 16.8205ZM4.89131 30.0126C5.39546 30.1945 5.93806 30.294 6.50386 30.294C8.57783 30.294 10.3454 28.9616 10.9979 27.1086H15.6103L11.1047 33.1101H4.89131V30.0126ZM65.8776 33.1101L70.3832 27.1086H76.8487V33.1101H65.8776Z" fill="white"/>
<path d="M70.4901 53.0405C71.3604 53.0405 72.066 52.3356 72.066 51.4652V45.0199C72.066 44.1496 71.3604 43.444 70.4901 43.444H10.3643C9.49399 43.444 8.78842 44.1496 8.78842 45.0199V51.4652C8.78842 52.3356 9.49399 53.0405 10.3643 53.0405H70.4901ZM68.9148 49.8893H51.3849V46.5952H68.9148V49.8893ZM48.2336 49.8893H30.0177V46.5952H48.2336V49.8893ZM11.9403 46.5952H26.8664V49.8893H11.9403V46.5952Z" fill="white"/>
<path d="M40.5511 74.1317H40.5249C39.6545 74.1317 38.9489 74.8367 38.9489 75.7071C38.9489 76.5774 39.6545 77.283 40.5249 77.283H40.5511C41.4215 77.283 42.127 76.5774 42.127 75.7071C42.127 74.8367 41.4215 74.1317 40.5511 74.1317Z" fill="white"/>
</svg>
